<svg viewBox="0 0 327 249" fill="none" xmlns="http://www.w3.org/2000/svg">
<path d="M26.2017 240V210.909H38.2188C40.3968 210.909 42.2765 211.335 43.858 212.188C45.4489 213.03 46.6752 214.209 47.5369 215.724C48.3987 217.23 48.8295 218.982 48.8295 220.98C48.8295 222.988 48.3892 224.744 47.5085 226.25C46.6373 227.746 45.392 228.906 43.7727 229.73C42.1534 230.554 40.2311 230.966 38.0057 230.966H30.5909V225.426H36.6989C37.7595 225.426 38.6449 225.241 39.3551 224.872C40.0748 224.503 40.6193 223.987 40.9886 223.324C41.358 222.652 41.5426 221.87 41.5426 220.98C41.5426 220.08 41.358 219.304 40.9886 218.651C40.6193 217.988 40.0748 217.476 39.3551 217.116C38.6354 216.757 37.75 216.577 36.6989 216.577H33.233V240H26.2017ZM62.0504 240.412C59.7588 240.412 57.7891 239.943 56.1413 239.006C54.5031 238.059 53.2389 236.742 52.3487 235.057C51.468 233.362 51.0277 231.397 51.0277 229.162C51.0277 226.918 51.468 224.953 52.3487 223.267C53.2389 221.572 54.5031 220.256 56.1413 219.318C57.7891 218.371 59.7588 217.898 62.0504 217.898C64.3421 217.898 66.3071 218.371 67.9453 219.318C69.593 220.256 70.8572 221.572 71.7379 223.267C72.6281 224.953 73.0732 226.918 73.0732 229.162C73.0732 231.397 72.6281 233.362 71.7379 235.057C70.8572 236.742 69.593 238.059 67.9453 239.006C66.3071 239.943 64.3421 240.412 62.0504 240.412ZM62.093 235.17C62.9264 235.17 63.6319 234.915 64.2095 234.403C64.7872 233.892 65.2275 233.182 65.5305 232.273C65.843 231.364 65.9993 230.312 65.9993 229.119C65.9993 227.907 65.843 226.847 65.5305 225.938C65.2275 225.028 64.7872 224.318 64.2095 223.807C63.6319 223.295 62.9264 223.04 62.093 223.04C61.2313 223.04 60.5021 223.295 59.9055 223.807C59.3184 224.318 58.8686 225.028 58.5561 225.938C58.2531 226.847 58.1016 227.907 58.1016 229.119C58.1016 230.312 58.2531 231.364 58.5561 232.273C58.8686 233.182 59.3184 233.892 59.9055 234.403C60.5021 234.915 61.2313 235.17 62.093 235.17ZM95.6797 224.844L89.3018 225.014C89.2356 224.56 89.0556 224.157 88.7621 223.807C88.4685 223.447 88.085 223.168 87.6115 222.969C87.1475 222.76 86.6077 222.656 85.9922 222.656C85.1873 222.656 84.5007 222.817 83.9325 223.139C83.3738 223.461 83.0992 223.897 83.1087 224.446C83.0992 224.872 83.2696 225.241 83.62 225.554C83.9799 225.866 84.6191 226.117 85.5376 226.307L89.7422 227.102C91.9202 227.519 93.5395 228.21 94.6001 229.176C95.6702 230.142 96.21 231.42 96.2195 233.011C96.21 234.508 95.7649 235.81 94.8842 236.918C94.013 238.026 92.8198 238.887 91.3047 239.503C89.7895 240.109 88.0566 240.412 86.1058 240.412C82.9903 240.412 80.5329 239.773 78.7337 238.494C76.9439 237.206 75.9212 235.483 75.6655 233.324L82.5263 233.153C82.6778 233.949 83.0708 234.555 83.7053 234.972C84.3397 235.388 85.1494 235.597 86.1342 235.597C87.0244 235.597 87.7488 235.431 88.3075 235.099C88.8662 234.768 89.1503 234.328 89.1598 233.778C89.1503 233.286 88.9325 232.893 88.5064 232.599C88.0803 232.296 87.4126 232.06 86.5036 231.889L82.6967 231.165C80.5092 230.767 78.8804 230.033 77.8104 228.963C76.7403 227.884 76.21 226.51 76.2195 224.844C76.21 223.385 76.5982 222.14 77.3842 221.108C78.1702 220.066 79.2876 219.271 80.7365 218.722C82.1854 218.172 83.8946 217.898 85.8643 217.898C88.8189 217.898 91.1484 218.518 92.853 219.759C94.5575 220.99 95.4998 222.685 95.6797 224.844ZM99.6392 240V218.182H106.585V240H99.6392ZM103.119 215.639C102.144 215.639 101.306 215.317 100.605 214.673C99.9044 214.02 99.554 213.234 99.554 212.315C99.554 211.406 99.9044 210.63 100.605 209.986C101.306 209.332 102.144 209.006 103.119 209.006C104.104 209.006 104.942 209.332 105.634 209.986C106.334 210.63 106.685 211.406 106.685 212.315C106.685 213.234 106.334 214.02 105.634 214.673C104.942 215.317 104.104 215.639 103.119 215.639ZM123.322 218.182V223.295H109.558V218.182H123.322ZM112.441 212.955H119.387V233.139C119.387 233.565 119.453 233.911 119.586 234.176C119.728 234.432 119.932 234.616 120.197 234.73C120.462 234.834 120.779 234.886 121.148 234.886C121.414 234.886 121.693 234.863 121.987 234.815C122.29 234.759 122.517 234.711 122.668 234.673L123.719 239.688C123.388 239.782 122.919 239.901 122.313 240.043C121.717 240.185 121.002 240.275 120.168 240.312C118.54 240.388 117.143 240.199 115.978 239.744C114.823 239.28 113.937 238.561 113.322 237.585C112.716 236.61 112.422 235.384 112.441 233.906V212.955ZM126.866 240V218.182H133.812V240H126.866ZM130.346 215.639C129.371 215.639 128.532 215.317 127.832 214.673C127.131 214.02 126.781 213.234 126.781 212.315C126.781 211.406 127.131 210.63 127.832 209.986C128.532 209.332 129.371 209.006 130.346 209.006C131.331 209.006 132.169 209.332 132.86 209.986C133.561 210.63 133.911 211.406 133.911 212.315C133.911 213.234 133.561 214.02 132.86 214.673C132.169 215.317 131.331 215.639 130.346 215.639ZM159.398 218.182L151.912 240H143.957L136.486 218.182H143.801L147.821 233.21H148.048L152.082 218.182H159.398ZM162.061 240V218.182H169.007V240H162.061ZM165.541 215.639C164.566 215.639 163.728 215.317 163.027 214.673C162.326 214.02 161.976 213.234 161.976 212.315C161.976 211.406 162.326 210.63 163.027 209.986C163.728 209.332 164.566 209.006 165.541 209.006C166.526 209.006 167.364 209.332 168.055 209.986C168.756 210.63 169.107 211.406 169.107 212.315C169.107 213.234 168.756 214.02 168.055 214.673C167.364 215.317 166.526 215.639 165.541 215.639ZM185.744 218.182V223.295H171.979V218.182H185.744ZM174.863 212.955H181.809V233.139C181.809 233.565 181.875 233.911 182.008 234.176C182.15 234.432 182.353 234.616 182.619 234.73C182.884 234.834 183.201 234.886 183.57 234.886C183.835 234.886 184.115 234.863 184.408 234.815C184.711 234.759 184.939 234.711 185.09 234.673L186.141 239.688C185.81 239.782 185.341 239.901 184.735 240.043C184.138 240.185 183.424 240.275 182.59 240.312C180.961 240.388 179.565 240.199 178.4 239.744C177.245 239.28 176.359 238.561 175.744 237.585C175.138 236.61 174.844 235.384 174.863 233.906V212.955ZM193.535 248.182C192.701 248.182 191.915 248.116 191.177 247.983C190.438 247.86 189.804 247.694 189.273 247.486L190.808 242.443C191.489 242.67 192.105 242.803 192.654 242.841C193.213 242.879 193.691 242.789 194.089 242.571C194.496 242.363 194.808 241.989 195.026 241.449L195.296 240.795L187.54 218.182H194.813L198.833 233.75H199.06L203.137 218.182H210.452L202.228 242.088C201.83 243.281 201.267 244.332 200.538 245.241C199.818 246.16 198.885 246.88 197.739 247.401C196.603 247.921 195.201 248.182 193.535 248.182ZM213.116 240V210.909H225.133C227.311 210.909 229.191 211.335 230.772 212.188C232.363 213.03 233.589 214.209 234.451 215.724C235.313 217.23 235.744 218.982 235.744 220.98C235.744 222.988 235.303 224.744 234.423 226.25C233.551 227.746 232.306 228.906 230.687 229.73C229.067 230.554 227.145 230.966 224.92 230.966H217.505V225.426H223.613C224.674 225.426 225.559 225.241 226.269 224.872C226.989 224.503 227.533 223.987 227.903 223.324C228.272 222.652 228.457 221.87 228.457 220.98C228.457 220.08 228.272 219.304 227.903 218.651C227.533 217.988 226.989 217.476 226.269 217.116C225.549 216.757 224.664 216.577 223.613 216.577H220.147V240H213.116ZM248.964 240.412C246.673 240.412 244.703 239.943 243.055 239.006C241.417 238.059 240.153 236.742 239.263 235.057C238.382 233.362 237.942 231.397 237.942 229.162C237.942 226.918 238.382 224.953 239.263 223.267C240.153 221.572 241.417 220.256 243.055 219.318C244.703 218.371 246.673 217.898 248.964 217.898C251.256 217.898 253.221 218.371 254.859 219.318C256.507 220.256 257.771 221.572 258.652 223.267C259.542 224.953 259.987 226.918 259.987 229.162C259.987 231.397 259.542 233.362 258.652 235.057C257.771 236.742 256.507 238.059 254.859 239.006C253.221 239.943 251.256 240.412 248.964 240.412ZM249.007 235.17C249.84 235.17 250.546 234.915 251.124 234.403C251.701 233.892 252.142 233.182 252.445 232.273C252.757 231.364 252.913 230.312 252.913 229.119C252.913 227.907 252.757 226.847 252.445 225.938C252.142 225.028 251.701 224.318 251.124 223.807C250.546 223.295 249.84 223.04 249.007 223.04C248.145 223.04 247.416 223.295 246.82 223.807C246.232 224.318 245.783 225.028 245.47 225.938C245.167 226.847 245.016 227.907 245.016 229.119C245.016 230.312 245.167 231.364 245.47 232.273C245.783 233.182 246.232 233.892 246.82 234.403C247.416 234.915 248.145 235.17 249.007 235.17ZM282.594 224.844L276.216 225.014C276.15 224.56 275.97 224.157 275.676 223.807C275.383 223.447 274.999 223.168 274.526 222.969C274.062 222.76 273.522 222.656 272.906 222.656C272.101 222.656 271.415 222.817 270.847 223.139C270.288 223.461 270.013 223.897 270.023 224.446C270.013 224.872 270.184 225.241 270.534 225.554C270.894 225.866 271.533 226.117 272.452 226.307L276.656 227.102C278.834 227.519 280.454 228.21 281.514 229.176C282.584 230.142 283.124 231.42 283.134 233.011C283.124 234.508 282.679 235.81 281.798 236.918C280.927 238.026 279.734 238.887 278.219 239.503C276.704 240.109 274.971 240.412 273.02 240.412C269.904 240.412 267.447 239.773 265.648 238.494C263.858 237.206 262.835 235.483 262.58 233.324L269.44 233.153C269.592 233.949 269.985 234.555 270.619 234.972C271.254 235.388 272.063 235.597 273.048 235.597C273.938 235.597 274.663 235.431 275.222 235.099C275.78 234.768 276.064 234.328 276.074 233.778C276.064 233.286 275.847 232.893 275.42 232.599C274.994 232.296 274.327 232.06 273.418 231.889L269.611 231.165C267.423 230.767 265.795 230.033 264.724 228.963C263.654 227.884 263.124 226.51 263.134 224.844C263.124 223.385 263.512 222.14 264.298 221.108C265.084 220.066 266.202 219.271 267.651 218.722C269.099 218.172 270.809 217.898 272.778 217.898C275.733 217.898 278.063 218.518 279.767 219.759C281.472 220.99 282.414 222.685 282.594 224.844ZM298.869 218.182V223.295H285.104V218.182H298.869ZM287.988 212.955H294.934V233.139C294.934 233.565 295 233.911 295.133 234.176C295.275 234.432 295.478 234.616 295.744 234.73C296.009 234.834 296.326 234.886 296.695 234.886C296.96 234.886 297.24 234.863 297.533 234.815C297.836 234.759 298.064 234.711 298.215 234.673L299.266 239.688C298.935 239.782 298.466 239.901 297.86 240.043C297.263 240.185 296.549 240.275 295.715 240.312C294.086 240.388 292.69 240.199 291.525 239.744C290.37 239.28 289.484 238.561 288.869 237.585C288.263 236.61 287.969 235.384 287.988 233.906V212.955Z" fill="black"/>
<g clip-path="url(#clip0_27_11)">
<path d="M0 163.5C0 160.16 1.33 157.09 4 154.29C6.94 151.75 10.14 150.42 13.34 150.42H44.44C48.04 150.42 50.98 151.76 53.38 154.29C55.78 156.83 56.98 160.03 56.98 163.5C56.98 167.37 55.78 170.57 53.38 173.11C50.98 175.65 47.91 176.98 44.44 176.98H13.35C9.75 176.98 6.68 175.65 4.01 172.98C1.33 170.17 0 166.97 0 163.5ZM44.45 56.99C44.45 53.39 45.65 50.32 47.92 47.91C50.99 45.24 54.06 43.91 57.4 43.91C60.74 43.91 63.94 45.24 66.48 47.78L88.37 69.8C90.91 72.74 92.11 75.81 92.11 79.01C92.11 82.75 90.91 85.95 88.51 88.35C86.11 90.75 83.17 92.09 79.7 92.09C76.5 92.09 73.29 90.76 70.36 88.22L47.94 66.73C45.67 63.93 44.47 60.59 44.47 56.99H44.45ZM83.42 163.5C83.42 176.45 86.22 188.19 91.7 198.74C91.97 200.34 93.17 201.14 95.04 201.14H120.13C121.06 201.14 121.73 200.74 122.13 200.07C122.53 199.27 122.4 198.47 121.86 197.53C113.32 187.25 109.05 175.91 109.05 163.49C109.05 148.54 114.39 135.73 125.07 125.18C135.75 114.64 148.56 109.43 163.64 109.43C178.72 109.43 191.27 114.64 201.81 125.18C212.35 135.72 217.69 148.4 217.69 163.49C217.69 176.04 213.42 187.38 205.01 197.53C204.48 198.46 204.34 199.27 204.61 200.07C204.88 200.87 205.54 201.14 206.61 201.14H231.97C233.71 201.14 234.77 200.34 235.04 198.74C240.91 188.46 243.58 176.72 243.58 163.5C243.58 152.69 241.44 142.28 237.17 132.54C232.9 122.66 227.16 114.25 220.09 107.05C213.02 99.98 204.47 94.24 194.6 89.97C184.72 85.7 174.45 83.7 163.64 83.7C152.83 83.7 142.42 85.84 132.54 89.97C122.66 94.24 114.12 99.85 106.91 107.05C99.7 114.12 93.96 122.67 89.69 132.54C85.55 142.28 83.42 152.56 83.42 163.5ZM150.55 43.91V13.21C150.55 9.33999 151.75 6.26999 154.29 3.72999C156.83 1.18999 160.03 -0.0100098 163.77 -0.0100098C167.51 -0.0100098 170.58 1.18999 173.11 3.72999C175.65 6.26999 176.85 9.59999 176.85 13.34V44.04C176.85 47.91 175.65 50.98 173.11 53.52C170.71 55.92 167.5 57.26 163.77 57.26C160.04 57.26 156.83 56.06 154.29 53.52C151.75 50.98 150.55 47.78 150.55 43.91ZM235.3 79.15C235.3 75.81 236.5 72.74 238.9 69.94L260.52 47.92C263.06 45.38 266.26 44.05 269.86 44.05C273.46 44.05 276.67 45.38 279.07 47.92C281.61 50.46 282.81 53.53 282.81 57.13C282.81 61 281.61 64.2 279.34 66.87L256.92 88.36C254.12 90.9 250.91 92.23 247.58 92.23C243.98 92.23 241.04 91.03 238.77 88.49C236.5 85.95 235.3 82.88 235.3 79.15ZM270.14 163.5C270.14 159.9 271.34 156.83 273.74 154.29C276.14 151.75 279.08 150.42 282.55 150.42H313.91C317.51 150.42 320.58 151.76 323.12 154.29C325.66 156.82 326.99 160.03 326.99 163.5C326.99 167.24 325.66 170.31 323.12 172.98C320.58 175.65 317.51 176.98 313.91 176.98H282.55C278.95 176.98 276.01 175.65 273.61 173.11C271.34 170.44 270.14 167.24 270.14 163.5Z" fill="black"/>
</g>
<defs>
<clipPath id="clip0_27_11">
<rect width="327" height="201.14" fill="white"/>
</clipPath>
</defs>
</svg>
